<?xml version="1.0" encoding="UTF-8"?>
<svg id="Layer_2" data-name="Layer 2" xmlns="http://www.w3.org/2000/svg" viewBox="0 0 69.61 104.7">
  <g id="Layer_1-2" data-name="Layer 1">
    <path d="M0,91.94c0-3.33.42-7.05,1.25-11.16.83-4.11,1.87-8.3,3.12-12.55,1.25-4.25,2.59-8.39,4.02-12.41,1.43-4.02,2.7-7.65,3.81-10.89.74-2.03,1.55-4.55,2.43-7.56.88-3.01,1.9-6.17,3.05-9.5,1.16-3.33,2.43-6.66,3.81-9.98s2.91-6.31,4.58-8.94,3.49-4.78,5.48-6.45c1.99-1.66,4.14-2.5,6.45-2.5,1.94,0,3.81.88,5.62,2.63,1.8,1.75,3.51,4,5.13,6.73,1.62,2.73,3.14,5.78,4.58,9.15,1.43,3.37,2.73,6.68,3.88,9.92,1.16,3.23,2.13,6.24,2.91,9.01.79,2.77,1.37,4.9,1.73,6.38,1.85,7.21,3.61,14.49,5.27,21.84s2.5,14.72,2.5,22.12c0,1.85-.09,3.77-.28,5.75-.18,1.99-.65,3.81-1.39,5.48-.74,1.66-1.78,3.03-3.12,4.09-1.34,1.06-3.21,1.59-5.62,1.59-2.03,0-3.9-1.13-5.62-3.4-1.71-2.27-3.26-5.2-4.65-8.81s-2.66-7.63-3.81-12.06c-1.15-4.44-2.24-8.81-3.26-13.1-1.02-4.3-1.99-8.32-2.91-12.06-.92-3.74-1.85-6.73-2.77-8.94-.55,1.85-1.36,4.55-2.43,8.11-1.06,3.56-2.31,7.46-3.74,11.72-1.43,4.25-3,8.62-4.71,13.1-1.71,4.48-3.51,8.55-5.41,12.2-1.89,3.65-3.86,6.63-5.89,8.94-2.03,2.31-4.11,3.47-6.24,3.47-1.57,0-2.86-.37-3.88-1.11-1.02-.74-1.8-1.71-2.36-2.91-.55-1.2-.95-2.5-1.18-3.88-.23-1.39-.35-2.73-.35-4.02Z" fill="#408944"/>
  </g>
</svg>