<?xml version="1.0" encoding="UTF-8"?>
<svg id="Layer_2" data-name="Layer 2" xmlns="http://www.w3.org/2000/svg" viewBox="0 0 64.71 97.32">
  <g id="Layer_1-2" data-name="Layer 1">
    <path d="M0,85.46c0-3.09.39-6.55,1.16-10.38.77-3.82,1.74-7.71,2.9-11.67,1.16-3.95,2.41-7.8,3.74-11.54,1.33-3.74,2.51-7.11,3.54-10.12.69-1.89,1.44-4.23,2.26-7.03.82-2.79,1.76-5.74,2.84-8.83,1.08-3.09,2.26-6.19,3.54-9.28s2.71-5.87,4.25-8.31,3.24-4.45,5.09-5.99c1.85-1.55,3.85-2.32,5.99-2.32,1.8,0,3.54.82,5.22,2.45,1.68,1.63,3.27,3.72,4.77,6.25,1.5,2.53,2.92,5.37,4.25,8.51,1.33,3.14,2.54,6.21,3.61,9.22,1.08,3.01,1.98,5.8,2.71,8.38.73,2.58,1.27,4.55,1.61,5.93,1.72,6.7,3.35,13.47,4.9,20.3s2.32,13.68,2.32,20.56c0,1.72-.08,3.5-.26,5.35-.17,1.85-.6,3.54-1.29,5.09-.69,1.55-1.65,2.81-2.9,3.8-1.24.99-2.98,1.48-5.22,1.48-1.89,0-3.63-1.05-5.22-3.16-1.59-2.11-3.03-4.83-4.32-8.19s-2.47-7.09-3.54-11.21c-1.07-4.12-2.08-8.19-3.03-12.18-.94-4-1.85-7.73-2.71-11.21-.86-3.48-1.72-6.25-2.58-8.31-.52,1.72-1.27,4.23-2.26,7.54-.99,3.31-2.15,6.94-3.48,10.89-1.33,3.95-2.79,8.01-4.38,12.18-1.59,4.17-3.27,7.95-5.03,11.34-1.76,3.39-3.59,6.17-5.48,8.31-1.89,2.15-3.82,3.22-5.8,3.22-1.46,0-2.66-.34-3.61-1.03-.94-.69-1.68-1.59-2.19-2.71-.52-1.12-.88-2.32-1.1-3.61-.21-1.29-.32-2.54-.32-3.74Z" fill="#e6e6d9"/>
  </g>
</svg>